<svg width="27" height="27" viewBox="0 0 27 27" fill="none" xmlns="http://www.w3.org/2000/svg">
<path fill-rule="evenodd" clip-rule="evenodd" d="M24 3H0V27H24V3ZM23 4H1V26H23V4Z" fill="white"/>
<path d="M19 9C19 8.44771 18.5523 8 18 8L9 8C8.44772 8 8 8.44771 8 9C8 9.55228 8.44772 10 9 10H17V18C17 18.5523 17.4477 19 18 19C18.5523 19 19 18.5523 19 18L19 9ZM6.70711 21.7071L18.7071 9.70711L17.2929 8.29289L5.29289 20.2929L6.70711 21.7071Z" fill="white"/>
<path fill-rule="evenodd" clip-rule="evenodd" d="M27 0H2V1.41937H25.3871V22H2V22H25.3871V22H27V0Z" fill="white"/>
</svg>
